# xmcd CD database file generated by OrangeCD 5.2
#
# Track frame offsets:
#	182
#	10720
#	22320
#	36637
#	52312
#	66660
#	81297
#	95315
#	114900
#	126875
#	139445
#	155760
#	169110
#
# Disc length: 2486 seconds
#
# Revision: 2
# Processed by: cddbd v1.5.1PL2 Copyright (c) Steve Scherf et al.
# Submitted via: OrangeCD 5.2
#
DISCID=c209b40d
DTITLE=The Kentucky Headhunters - Electric Barnyard
DYEAR=1991
DGENRE=Country
TTITLE0=It's Chitlin' Time
TTITLE1=The Ballad Of Davy Crockett
TTITLE2=Only Daddy That'll Walk The Line
TTITLE3=With Body And Soul
TTITLE4=Diane
TTITLE5=16 And Single
TTITLE6=Wishin' Well
TTITLE7=Spirit In The Sky
TTITLE8=Always Makin' Love
TTITLE9=Love Bug Crawl
TTITLE10=Big Mexican Dinner
TTITLE11=Kickin' Them Blues Around
TTITLE12=Take Me Back
EXTD=YEAR: 1991
EXTT0=
EXTT1=
EXTT2=
EXTT3=
EXTT4=
EXTT5=
EXTT6=
EXTT7=
EXTT8=
EXTT9=
EXTT10=
EXTT11=
EXTT12=
PLAYORDER=
